<?xml version="1.0" encoding="UTF-8"?>
<!DOCTYPE svg PUBLIC "-//W3C//DTD SVG 1.1//EN" "http://www.w3.org/Graphics/SVG/1.1/DTD/svg11.dtd">
<!-- Creator: CorelDRAW -->
<svg xmlns="http://www.w3.org/2000/svg" xml:space="preserve" width="2048px" height="2048px" style="shape-rendering:geometricPrecision; text-rendering:geometricPrecision; image-rendering:optimizeQuality; fill-rule:evenodd; clip-rule:evenodd"
viewBox="0 0 2048 2048"
 xmlns:xlink="http://www.w3.org/1999/xlink">
 <defs>
  <style type="text/css">
   <![CDATA[
    .fil2 {fill:none}
    .fil1 {fill:#7CB342}
    .fil6 {fill:#AB47BC}
    .fil0 {fill:#AED581}
    .fil4 {fill:#FF6D00}
    .fil3 {fill:#FFA726}
    .fil5 {fill:#FFE0B2}
   ]]>
  </style>
   <clipPath id="id0">
    <path d="M1024 -0.0011811c565.539,0 1024,458.462 1024,1024 0,565.539 -458.462,1024 -1024,1024 -565.539,0 -1024,-458.462 -1024,-1024 0,-565.539 458.462,-1024 1024,-1024z"/>
   </clipPath>
 </defs>
 <g id="Layer_x0020_1">
  <metadata id="CorelCorpID_0Corel-Layer"/>
  <path class="fil0" d="M1024 -0.0011811c565.539,0 1024,458.462 1024,1024 0,565.539 -458.462,1024 -1024,1024 -565.539,0 -1024,-458.462 -1024,-1024 0,-565.539 458.462,-1024 1024,-1024z"/>
  <g style="clip-path:url(#id0)">
   <g id="_466479776">
    <g>
     <polygon id="_3968122001" class="fil1" points="1584,463.978 2719.88,1599.86 2719.88,2719.9 1584,1584.02 "/>
     <polygon id="_396797656" class="fil1" points="1584,1584.02 2719.88,2719.9 1599.88,2719.9 464,1584.02 "/>
    </g>
    <polygon id="_466504064" class="fil1" points="1584,463.978 1584,1584.02 464,1584.02 464,463.978 "/>
   </g>
  </g>
  <path class="fil2" d="M1024 -0.0011811c565.539,0 1024,458.462 1024,1024 0,565.539 -458.462,1024 -1024,1024 -565.539,0 -1024,-458.462 -1024,-1024 0,-565.539 458.462,-1024 1024,-1024z"/>
  <polygon class="fil3" points="1584,1584.02 464,1584.02 464,463.978 1584,463.978 "/>
  <polygon class="fil4" points="735.798,976.221 857.581,1098.01 1397.95,638.689 1434.05,681.347 874.047,1157.35 854.418,1174.03 836.202,1155.82 696.204,1015.81 "/>
  <path class="fil5" d="M1386.43 1473.34c-46.8733,0 -85.5698,-37.565 -85.5698,-84.6615 0,-47.0977 38.6965,-84.6627 85.5698,-84.6627 46.8733,0 85.5686,37.565 85.5686,84.6627 0,47.0965 -38.6953,84.6615 -85.5686,84.6615z"/>
  <path class="fil6" d="M1023.48 1473.34c-46.8744,0 -85.5709,-37.565 -85.5709,-84.6615 0,-47.0977 38.6965,-84.6627 85.5709,-84.6627 46.8721,0 85.5686,37.565 85.5686,84.6627 0,47.0965 -38.6965,84.6615 -85.5686,84.6615z"/>
  <path class="fil5" d="M660.532 1473.34c-46.8733,0 -85.5698,-37.565 -85.5698,-84.6615 0,-47.0977 38.6965,-84.6627 85.5698,-84.6627 46.8733,0 85.5686,37.565 85.5686,84.6627 0,47.0965 -38.6953,84.6615 -85.5686,84.6615z"/>
 </g>
</svg>
